# xmcd CD database file
#
# Track frame offsets:
#	150
#	13521
#	38732
#	61040
#	71729
#	96645
#	113779
#	136022
#	152765
#	167514
#	178314
#	196231
#
# Disc length: 2908 seconds
#
# Revision: 2
# Processed by: cddbd v1.5.2PL0 Copyright (c) Steve Scherf et al.
# Submitted via: CDex 1.70beta2
#
DISCID=9c0b5a0c
DTITLE=Alabama - Angels Among Us - Hymns and Gospel Favorites
DYEAR=2014
DGENRE=Gospel
TTITLE0=I Saw The Light
TTITLE1=Because He Lives
TTITLE2=Just a Closer Walk With Thee
TTITLE3=I'll Fly Away
TTITLE4=What A Friend We Have In Jesus
TTITLE5=Church In The Wildwood
TTITLE6=The Old Rugged Cross
TTITLE7=Raising Alabama
TTITLE8=Jordan's Banks
TTITLE9=Let's All Go Down To The River
TTITLE10=Lift Me Up
TTITLE11=Angels Among Us
EXTD=YEAR: 2014
EXTT0=
EXTT1=
EXTT2=
EXTT3=
EXTT4=
EXTT5=
EXTT6=
EXTT7=
EXTT8=
EXTT9=
EXTT10=
EXTT11=
PLAYORDER=
